<svg width="20" height="20" viewBox="0 0 20 20" fill="none" xmlns="http://www.w3.org/2000/svg">
<path fill-rule="evenodd" clip-rule="evenodd" d="M7.5006 17.5007C7.5006 17.0404 7.87369 16.6673 8.33393 16.6673H11.6673C12.1275 16.6673 12.5006 17.0404 12.5006 17.5007C12.5006 17.9609 12.1275 18.334 11.6673 18.334H8.33393C7.87369 18.334 7.5006 17.9609 7.5006 17.5007Z" fill="#F04D1A"/>
<path fill-rule="evenodd" clip-rule="evenodd" d="M5.87581 2.54253C6.96977 1.44857 8.4535 0.833984 10.0006 0.833984C11.5477 0.833984 13.0314 1.44857 14.1254 2.54253C15.2193 3.63649 15.8339 5.12022 15.8339 6.66732C15.8339 9.09455 16.4439 10.7039 17.0834 11.7316L17.0933 11.7475C17.391 12.226 17.6264 12.6042 17.7851 12.8795C17.8646 13.0175 17.9371 13.1504 17.9907 13.2685C18.0175 13.3275 18.0474 13.3998 18.0708 13.4784C18.0903 13.5436 18.1273 13.6829 18.1134 13.8525C18.1041 13.9665 18.0808 14.1613 17.969 14.3626C17.8572 14.5638 17.7041 14.6864 17.6123 14.7546C17.4037 14.9093 17.1642 14.9447 17.0842 14.9565L17.0805 14.9571C16.9577 14.9753 16.8183 14.9843 16.6777 14.9898C16.3983 15.0007 16.0115 15.0007 15.5305 15.0007H4.47072C3.9897 15.0007 3.60291 15.0007 3.32353 14.9898C3.18291 14.9843 3.04351 14.9753 2.92067 14.9571L2.91698 14.9565C2.83704 14.9447 2.59751 14.9093 2.38893 14.7546C2.29707 14.6864 2.14396 14.5638 2.03217 14.3626C1.92037 14.1613 1.89713 13.9665 1.88781 13.8525C1.87393 13.6829 1.91093 13.5436 1.93036 13.4784C1.95377 13.3998 1.98372 13.3275 2.01049 13.2685C2.06413 13.1504 2.13657 13.0175 2.21609 12.8795C2.37478 12.6042 2.61018 12.2259 2.90795 11.7474L2.91778 11.7316C3.55726 10.7039 4.16726 9.09455 4.16726 6.66732C4.16726 5.12022 4.78184 3.63649 5.87581 2.54253Z" fill="#F04D1A"/>
</svg>
