<svg width="24" height="24" viewBox="0 0 24 24" fill="none" xmlns="http://www.w3.org/2000/svg">
<path d="M15.6469 18.0153C16.0757 19.6157 15.126 21.2607 13.5256 21.6895C11.9252 22.1183 10.2802 21.1686 9.85134 19.5682M2.05781 11.6138C1.66832 10.2156 2.07336 8.70398 3.10976 7.68786M12.1473 5.74134C12.4515 5.19404 12.5517 4.53254 12.3768 3.87994C12.0195 2.54627 10.6486 1.75482 9.31498 2.11217C7.98131 2.46953 7.18986 3.84037 7.54721 5.17404C7.72207 5.82663 8.13961 6.3494 8.67671 6.67128M20.32 6.72049C19.9582 5.31488 18.8516 4.20828 17.446 3.8465M17.4916 9.44577C17.1347 8.11364 16.1817 6.99967 14.8425 6.34894C13.5032 5.69821 11.8873 5.56401 10.3502 5.97587C8.81312 6.38773 7.48079 7.31191 6.64631 8.54509C5.81183 9.77828 5.54355 11.2195 5.9005 12.5516C6.49107 14.7557 6.3764 16.514 6.00344 17.8502C5.57838 19.373 5.36584 20.1345 5.42326 20.2873C5.48895 20.4623 5.53647 20.5103 5.7107 20.5778C5.863 20.6368 6.50277 20.4654 7.78231 20.1225L19.6474 16.9433C20.9269 16.6004 21.5667 16.429 21.6691 16.3018C21.7862 16.1562 21.8034 16.0908 21.7728 15.9065C21.7461 15.7454 21.1813 15.1922 20.0517 14.0859C19.0607 13.1153 18.0822 11.6498 17.4916 9.44577Z" stroke="#FCFCFC" stroke-width="2" stroke-linecap="round" stroke-linejoin="round"/>
</svg>
