<svg width="213" height="164" viewBox="0 0 213 164" fill="none" xmlns="http://www.w3.org/2000/svg">
<rect x="77.0625" y="34.8496" width="12.425" height="7.74" transform="rotate(-138 77.0625 34.8496)" fill="#DFF9E8"/>
<rect x="133.062" y="93.8496" width="26.425" height="5.74" transform="rotate(54 133.062 93.8496)" fill="#32AE60"/>
<rect x="60.0625" y="154.85" width="12.425" height="4.74" transform="rotate(-27 60.0625 154.85)" fill="#FEE6C7"/>
<rect x="192.062" y="144.85" width="13.425" height="4.74" transform="rotate(87 192.062 144.85)" fill="#0C68E9"/>
<rect x="154.359" y="39.2812" width="17.5442" height="4.01862" transform="rotate(-15 154.359 39.2812)" fill="#B981DA"/>
<rect x="130.5" y="19.9512" width="7.425" height="6.74" transform="rotate(-69.9397 130.5 19.9512)" fill="#FBA94B"/>
<rect x="4.0625" y="85.8496" width="8.425" height="4.74" transform="rotate(59 4.0625 85.8496)" fill="#F04D1A"/>
<rect x="16.0625" y="0.849609" width="7.425" height="6.74" transform="rotate(-4 16.0625 0.849609)" fill="#FBA94B"/>
<circle cx="85.5" cy="160.287" r="3.4375" fill="#89D6FF"/>
<circle cx="209.938" cy="76.9219" r="2.9375" fill="#B981DA"/>
</svg>
