<svg width="32" height="32" viewBox="0 0 32 32" fill="none" xmlns="http://www.w3.org/2000/svg">
<g clip-path="url(#clip0_4052_1653)">
<path fill-rule="evenodd" clip-rule="evenodd" d="M16 32C7.163 32 0 24.837 0 16C0 7.163 7.163 0 16 0C24.837 0 32 7.163 32 16C32 24.837 24.837 32 16 32ZM14.856 17.62L20.879 22.877H24.869L21.385 19.835C22.5886 19.3388 23.583 18.4409 24.1992 17.2941C24.8155 16.1474 25.0154 14.8225 24.765 13.545C24.5196 12.2678 23.8375 11.1158 22.8356 10.2865C21.8337 9.45725 20.5746 9.00241 19.274 9H14.855L17.869 11.629H19.275C20.067 11.6314 20.8257 11.9482 21.3841 12.5099C21.9426 13.0715 22.2551 13.832 22.253 14.624C22.2551 15.416 21.9426 16.1765 21.3841 16.7381C20.8257 17.2998 20.067 17.6166 19.275 17.619H14.855L14.856 17.62ZM17.013 14.26L10.993 9H7.003L10.484 12.043C9.28045 12.5392 8.28598 13.4371 7.66976 14.5839C7.05353 15.7306 6.85361 17.0555 7.104 18.333C7.34936 19.61 8.03133 20.7619 9.033 21.5912C10.0347 22.4204 11.2936 22.8754 12.594 22.878H17.012L14 20.25H12.593C11.801 20.2476 11.0423 19.9308 10.4839 19.3691C9.9254 18.8075 9.61287 18.047 9.615 17.255C9.61287 16.463 9.9254 15.7025 10.4839 15.1409C11.0423 14.5792 11.801 14.2624 12.593 14.26H17.013Z" fill="#1A1D1F"/>
</g>
<defs>
<clipPath id="clip0_4052_1653">
<rect width="32" height="32" fill="white"/>
</clipPath>
</defs>
</svg>
