<svg xmlns="http://www.w3.org/2000/svg" xmlns:xlink="http://www.w3.org/1999/xlink" width="500" zoomAndPan="magnify" viewBox="0 0 375 374.999991" height="500" preserveAspectRatio="xMidYMid meet" version="1.0"><defs><clipPath id="2add718548"><path d="M 19.304688 38.019531 L 188 38.019531 L 188 337 L 19.304688 337 Z M 19.304688 38.019531 " clip-rule="nonzero"/></clipPath><clipPath id="07b7f7e50a"><path d="M 153 38.019531 L 356 38.019531 L 356 337 L 153 337 Z M 153 38.019531 " clip-rule="nonzero"/></clipPath></defs><g clip-path="url(#2add718548)"><path fill="#408f35" d="M 187.5 116.046875 L 91.300781 336.71875 L 19.304688 336.71875 L 153.539062 38.148438 Z M 187.5 116.046875 " fill-opacity="1" fill-rule="nonzero"/></g><g clip-path="url(#07b7f7e50a)"><path fill="#27ae60" d="M 355.695312 336.71875 L 258.738281 279.476562 L 187.5 116.046875 L 153.539062 38.148438 L 221.457031 38.148438 Z M 355.695312 336.71875 " fill-opacity="1" fill-rule="nonzero"/></g><path fill="#408f35" d="M 258.964844 287.523438 L 225.175781 336.847656 L 340.828125 336.847656 Z M 258.964844 287.523438 " fill-opacity="1" fill-rule="nonzero"/><path fill="#408f35" d="M 215.589844 209.105469 C 215.589844 210.484375 215.488281 211.855469 215.285156 213.214844 C 215.085938 214.578125 214.785156 215.921875 214.386719 217.238281 C 213.984375 218.558594 213.492188 219.839844 212.90625 221.085938 C 212.316406 222.332031 211.640625 223.527344 210.878906 224.675781 C 210.113281 225.820312 209.269531 226.90625 208.347656 227.925781 C 207.425781 228.949219 206.429688 229.898438 205.367188 230.777344 C 204.304688 231.652344 203.183594 232.445312 202.003906 233.15625 C 200.824219 233.867188 199.597656 234.488281 198.328125 235.019531 C 197.058594 235.550781 195.753906 235.988281 194.417969 236.324219 C 193.082031 236.664062 191.730469 236.90625 190.359375 237.046875 C 188.988281 237.1875 187.617188 237.226562 186.238281 237.164062 C 184.863281 237.101562 183.5 236.9375 182.148438 236.675781 C 180.796875 236.414062 179.46875 236.054688 178.167969 235.597656 C 176.871094 235.140625 175.613281 234.589844 174.394531 233.945312 C 173.175781 233.304688 172.007812 232.574219 170.898438 231.761719 C 169.789062 230.945312 168.742188 230.054688 167.761719 229.085938 C 169.253906 229.671875 170.789062 230.121094 172.359375 230.441406 C 173.929688 230.761719 175.519531 230.945312 177.121094 230.996094 C 178.722656 231.042969 180.320312 230.953125 181.90625 230.730469 C 183.496094 230.503906 185.050781 230.144531 186.578125 229.65625 C 188.105469 229.164062 189.578125 228.542969 191 227.800781 C 192.421875 227.058594 193.765625 226.199219 195.039062 225.222656 C 196.3125 224.246094 197.496094 223.171875 198.585938 221.996094 C 199.675781 220.816406 200.65625 219.554688 201.527344 218.210938 C 202.402344 216.867188 203.152344 215.457031 203.785156 213.980469 C 204.417969 212.507812 204.917969 210.992188 205.292969 209.429688 C 205.664062 207.871094 205.898438 206.289062 206 204.691406 C 206.101562 203.089844 206.066406 201.492188 205.894531 199.898438 C 205.722656 198.304688 205.414062 196.734375 204.972656 195.195312 C 204.53125 193.652344 203.964844 192.160156 203.265625 190.714844 C 202.570312 189.269531 201.753906 187.894531 200.824219 186.589844 C 199.890625 185.285156 198.855469 184.070312 197.714844 182.941406 C 199.023438 183.453125 200.289062 184.058594 201.503906 184.757812 C 202.722656 185.460938 203.882812 186.246094 204.984375 187.121094 C 206.082031 187.996094 207.113281 188.949219 208.070312 189.976562 C 209.027344 191.007812 209.902344 192.101562 210.691406 193.261719 C 211.484375 194.421875 212.1875 195.636719 212.796875 196.902344 C 213.410156 198.167969 213.921875 199.472656 214.335938 200.816406 C 214.75 202.15625 215.0625 203.523438 215.273438 204.914062 C 215.484375 206.304688 215.589844 207.699219 215.589844 209.105469 Z M 215.589844 209.105469 " fill-opacity="1" fill-rule="nonzero"/><path fill="#27ae60" d="M 206.066406 202.914062 C 206.066406 203.484375 206.046875 204.050781 206.011719 204.621094 C 205.980469 205.1875 205.925781 205.753906 205.859375 206.316406 C 205.789062 206.882812 205.703125 207.445312 205.601562 208.003906 C 205.496094 208.5625 205.378906 209.117188 205.242188 209.671875 C 205.105469 210.222656 204.953125 210.769531 204.78125 211.3125 C 204.609375 211.855469 204.425781 212.390625 204.222656 212.925781 C 204.019531 213.457031 203.800781 213.980469 203.566406 214.5 C 203.332031 215.015625 203.082031 215.527344 202.816406 216.03125 C 202.550781 216.53125 202.269531 217.027344 201.976562 217.511719 C 201.679688 218 201.371094 218.476562 201.046875 218.941406 C 200.722656 219.410156 200.382812 219.867188 200.03125 220.3125 C 199.679688 220.757812 199.3125 221.195312 198.933594 221.621094 C 198.554688 222.042969 198.164062 222.457031 197.761719 222.855469 C 197.355469 223.257812 196.941406 223.644531 196.515625 224.019531 C 196.085938 224.394531 195.648438 224.757812 195.199219 225.105469 C 194.75 225.457031 194.289062 225.789062 193.820312 226.109375 C 193.351562 226.429688 192.871094 226.738281 192.382812 227.03125 C 191.894531 227.320312 191.398438 227.597656 190.894531 227.859375 C 190.390625 228.121094 189.878906 228.367188 189.359375 228.597656 C 188.835938 228.828125 188.3125 229.042969 187.777344 229.242188 C 187.246094 229.4375 186.707031 229.621094 186.164062 229.789062 C 185.617188 229.953125 185.070312 230.101562 184.515625 230.234375 C 183.964844 230.367188 183.40625 230.480469 182.847656 230.582031 C 182.289062 230.679688 181.726562 230.761719 181.160156 230.824219 C 180.59375 230.890625 180.027344 230.9375 179.460938 230.96875 C 178.890625 230.996094 178.324219 231.011719 177.753906 231.003906 C 177.1875 231 176.617188 230.980469 176.050781 230.941406 C 175.484375 230.902344 174.917969 230.84375 174.355469 230.773438 C 173.789062 230.699219 173.230469 230.609375 172.671875 230.5 C 172.113281 230.394531 171.558594 230.269531 171.007812 230.128906 C 170.457031 229.988281 169.910156 229.828125 169.367188 229.65625 C 168.828125 229.480469 168.292969 229.289062 167.761719 229.082031 C 166.621094 227.957031 165.585938 226.738281 164.652344 225.433594 C 163.722656 224.128906 162.910156 222.753906 162.210938 221.3125 C 161.515625 219.867188 160.949219 218.375 160.507812 216.832031 C 160.066406 215.289062 159.761719 213.722656 159.585938 212.128906 C 159.414062 210.535156 159.378906 208.9375 159.480469 207.335938 C 159.582031 205.738281 159.820312 204.15625 160.191406 202.597656 C 160.5625 201.039062 161.066406 199.519531 161.695312 198.046875 C 162.328125 196.574219 163.082031 195.164062 163.953125 193.820312 C 164.828125 192.472656 165.808594 191.214844 166.898438 190.035156 C 167.984375 188.859375 169.167969 187.785156 170.441406 186.808594 C 171.714844 185.835938 173.058594 184.976562 174.480469 184.230469 C 175.902344 183.488281 177.375 182.871094 178.898438 182.378906 C 180.425781 181.886719 181.984375 181.527344 183.570312 181.300781 C 185.15625 181.078125 186.753906 180.988281 188.355469 181.035156 C 189.957031 181.085938 191.546875 181.269531 193.117188 181.589844 C 194.6875 181.910156 196.21875 182.359375 197.714844 182.941406 C 199.039062 184.246094 200.222656 185.667969 201.261719 187.207031 C 202.304688 188.746094 203.183594 190.375 203.898438 192.089844 C 204.617188 193.804688 205.15625 195.570312 205.519531 197.394531 C 205.886719 199.214844 206.066406 201.054688 206.066406 202.914062 Z M 206.066406 202.914062 " fill-opacity="1" fill-rule="nonzero"/></svg>