<svg xmlns="http://www.w3.org/2000/svg" xmlns:xlink="http://www.w3.org/1999/xlink" width="500" zoomAndPan="magnify" viewBox="0 0 375 374.999991" height="500" preserveAspectRatio="xMidYMid meet" version="1.0"><defs><g/><clipPath id="d7afbb6baa"><path d="M 86.429688 61.488281 L 188 61.488281 L 188 241 L 86.429688 241 Z M 86.429688 61.488281 " clip-rule="nonzero"/></clipPath><clipPath id="888c5ff606"><path d="M 167 61.488281 L 288.929688 61.488281 L 288.929688 241 L 167 241 Z M 167 61.488281 " clip-rule="nonzero"/></clipPath><clipPath id="9fcf8a1364"><path d="M 210 211 L 280 211 L 280 241.488281 L 210 241.488281 Z M 210 211 " clip-rule="nonzero"/></clipPath></defs><g clip-path="url(#d7afbb6baa)"><path fill="#408f35" d="M 187.496094 108.378906 L 129.691406 240.980469 L 86.429688 240.980469 L 167.089844 61.570312 Z M 187.496094 108.378906 " fill-opacity="1" fill-rule="nonzero"/></g><g clip-path="url(#888c5ff606)"><path fill="#27ae60" d="M 288.570312 240.980469 L 230.304688 206.585938 L 187.496094 108.378906 L 167.089844 61.570312 L 207.902344 61.570312 Z M 288.570312 240.980469 " fill-opacity="1" fill-rule="nonzero"/></g><g clip-path="url(#9fcf8a1364)"><path fill="#408f35" d="M 230.441406 211.421875 L 210.136719 241.058594 L 279.632812 241.058594 Z M 230.441406 211.421875 " fill-opacity="1" fill-rule="nonzero"/></g><path fill="#408f35" d="M 204.375 164.300781 C 204.375 165.125 204.316406 165.949219 204.195312 166.769531 C 204.074219 167.585938 203.894531 168.394531 203.652344 169.1875 C 203.414062 169.976562 203.117188 170.75 202.765625 171.496094 C 202.410156 172.246094 202.003906 172.964844 201.546875 173.652344 C 201.085938 174.34375 200.582031 174.996094 200.023438 175.609375 C 199.46875 176.222656 198.875 176.792969 198.234375 177.320312 C 197.597656 177.847656 196.921875 178.324219 196.214844 178.75 C 195.503906 179.179688 194.769531 179.550781 194.003906 179.871094 C 193.242188 180.191406 192.457031 180.453125 191.65625 180.65625 C 190.851562 180.859375 190.039062 181.003906 189.214844 181.089844 C 188.394531 181.171875 187.566406 181.195312 186.742188 181.160156 C 185.914062 181.121094 185.09375 181.023438 184.28125 180.867188 C 183.46875 180.707031 182.671875 180.492188 181.890625 180.21875 C 181.109375 179.941406 180.355469 179.613281 179.621094 179.226562 C 178.890625 178.839844 178.191406 178.402344 177.523438 177.914062 C 176.855469 177.421875 176.226562 176.886719 175.636719 176.304688 C 176.535156 176.65625 177.457031 176.925781 178.398438 177.121094 C 179.34375 177.3125 180.296875 177.421875 181.261719 177.453125 C 182.226562 177.480469 183.183594 177.425781 184.136719 177.292969 C 185.089844 177.15625 186.027344 176.941406 186.945312 176.648438 C 187.863281 176.351562 188.746094 175.980469 189.601562 175.53125 C 190.453125 175.085938 191.265625 174.570312 192.03125 173.984375 C 192.792969 173.398438 193.503906 172.75 194.160156 172.042969 C 194.8125 171.335938 195.402344 170.578125 195.929688 169.769531 C 196.453125 168.960938 196.90625 168.113281 197.285156 167.230469 C 197.664062 166.34375 197.964844 165.433594 198.1875 164.496094 C 198.414062 163.558594 198.554688 162.605469 198.613281 161.644531 C 198.675781 160.683594 198.65625 159.722656 198.550781 158.765625 C 198.449219 157.808594 198.261719 156.867188 198 155.9375 C 197.734375 155.011719 197.390625 154.113281 196.972656 153.246094 C 196.554688 152.378906 196.0625 151.554688 195.503906 150.769531 C 194.945312 149.984375 194.320312 149.253906 193.636719 148.578125 C 194.421875 148.882812 195.183594 149.246094 195.914062 149.667969 C 196.644531 150.089844 197.34375 150.5625 198.003906 151.089844 C 198.664062 151.613281 199.28125 152.1875 199.859375 152.804688 C 200.433594 153.421875 200.957031 154.082031 201.433594 154.777344 C 201.910156 155.476562 202.332031 156.203125 202.699219 156.964844 C 203.066406 157.726562 203.375 158.511719 203.625 159.316406 C 203.875 160.125 204.0625 160.945312 204.1875 161.78125 C 204.3125 162.613281 204.375 163.453125 204.375 164.300781 Z M 204.375 164.300781 " fill-opacity="1" fill-rule="nonzero"/><path fill="#27ae60" d="M 198.652344 160.578125 C 198.652344 161.261719 198.613281 161.945312 198.53125 162.625 C 198.445312 163.300781 198.324219 163.972656 198.160156 164.636719 C 197.996094 165.300781 197.789062 165.953125 197.546875 166.59375 C 197.304688 167.230469 197.019531 167.855469 196.703125 168.460938 C 196.382812 169.0625 196.027344 169.648438 195.636719 170.210938 C 195.246094 170.773438 194.824219 171.308594 194.367188 171.816406 C 193.914062 172.328125 193.429688 172.808594 192.914062 173.261719 C 192.402344 173.710938 191.863281 174.132812 191.296875 174.515625 C 190.730469 174.902344 190.144531 175.253906 189.539062 175.566406 C 188.929688 175.882812 188.304688 176.160156 187.664062 176.398438 C 187.023438 176.636719 186.371094 176.835938 185.707031 176.996094 C 185.039062 177.15625 184.367188 177.273438 183.6875 177.351562 C 183.007812 177.429688 182.328125 177.464844 181.640625 177.457031 C 180.957031 177.453125 180.277344 177.40625 179.597656 177.316406 C 178.921875 177.230469 178.25 177.101562 177.585938 176.929688 C 176.925781 176.761719 176.273438 176.550781 175.636719 176.304688 C 174.953125 175.625 174.328125 174.894531 173.769531 174.109375 C 173.210938 173.328125 172.722656 172.5 172.300781 171.632812 C 171.882812 170.765625 171.542969 169.867188 171.277344 168.941406 C 171.011719 168.015625 170.828125 167.074219 170.726562 166.113281 C 170.621094 165.15625 170.601562 164.199219 170.660156 163.234375 C 170.722656 162.273438 170.863281 161.324219 171.089844 160.386719 C 171.3125 159.449219 171.613281 158.539062 171.992188 157.652344 C 172.371094 156.769531 172.824219 155.921875 173.347656 155.113281 C 173.875 154.304688 174.464844 153.546875 175.117188 152.839844 C 175.773438 152.132812 176.480469 151.484375 177.246094 150.902344 C 178.011719 150.316406 178.820312 149.796875 179.675781 149.351562 C 180.527344 148.90625 181.414062 148.53125 182.332031 148.238281 C 183.246094 147.941406 184.183594 147.726562 185.136719 147.589844 C 186.089844 147.457031 187.050781 147.402344 188.011719 147.433594 C 188.976562 147.460938 189.929688 147.570312 190.875 147.761719 C 191.816406 147.957031 192.738281 148.226562 193.636719 148.578125 C 195.242188 150.160156 196.480469 151.992188 197.351562 154.074219 C 198.222656 156.152344 198.65625 158.324219 198.652344 160.578125 Z M 198.652344 160.578125 " fill-opacity="1" fill-rule="nonzero"/><g fill="#191818" fill-opacity="1"><g transform="translate(0.578026, 301.460577)"><g><path d="M 26.78125 0 L 24.953125 -6.953125 L 12.90625 -6.953125 L 11.015625 0 L 0 0 L 12.109375 -37.28125 L 25.5 -37.28125 L 37.75 0 Z M 22.875 -15.1875 L 21.28125 -21.28125 C 21.113281 -21.9375 20.867188 -22.878906 20.546875 -24.109375 C 20.222656 -25.335938 19.90625 -26.609375 19.59375 -27.921875 C 19.28125 -29.234375 19.035156 -30.3125 18.859375 -31.15625 C 18.710938 -30.3125 18.5 -29.265625 18.21875 -28.015625 C 17.9375 -26.773438 17.644531 -25.546875 17.34375 -24.328125 C 17.050781 -23.109375 16.796875 -22.09375 16.578125 -21.28125 L 14.984375 -15.1875 Z M 22.875 -15.1875 "/></g></g></g><g fill="#191818" fill-opacity="1"><g transform="translate(38.331053, 301.460577)"><g><path d="M 4.015625 -37.125 L 16.96875 -37.125 C 22.332031 -37.125 26.15625 -36.328125 28.4375 -34.734375 C 30.71875 -33.140625 31.859375 -30.851562 31.859375 -27.875 C 31.859375 -26.25 31.566406 -24.867188 30.984375 -23.734375 C 30.398438 -22.609375 29.664062 -21.710938 28.78125 -21.046875 C 27.894531 -20.390625 26.984375 -19.941406 26.046875 -19.703125 L 26.046875 -19.453125 C 27.066406 -19.191406 28.078125 -18.769531 29.078125 -18.1875 C 30.085938 -17.601562 30.925781 -16.734375 31.59375 -15.578125 C 32.269531 -14.421875 32.609375 -12.851562 32.609375 -10.875 C 32.609375 -8.613281 32.035156 -6.671875 30.890625 -5.046875 C 29.742188 -3.421875 28.113281 -2.171875 26 -1.296875 C 23.882812 -0.429688 21.367188 0 18.453125 0 L 4.015625 0 Z M 14.046875 -22.875 L 17.0625 -22.875 C 18.71875 -22.875 19.882812 -23.21875 20.5625 -23.90625 C 21.238281 -24.59375 21.578125 -25.425781 21.578125 -26.40625 C 21.578125 -27.425781 21.191406 -28.203125 20.421875 -28.734375 C 19.648438 -29.265625 18.460938 -29.53125 16.859375 -29.53125 L 14.046875 -29.53125 Z M 14.046875 -15.546875 L 14.046875 -7.75 L 17.578125 -7.75 C 19.316406 -7.75 20.53125 -8.125 21.21875 -8.875 C 21.914062 -9.625 22.265625 -10.566406 22.265625 -11.703125 C 22.265625 -12.367188 22.113281 -12.992188 21.8125 -13.578125 C 21.519531 -14.160156 21.019531 -14.632812 20.3125 -15 C 19.601562 -15.363281 18.625 -15.546875 17.375 -15.546875 Z M 14.046875 -15.546875 "/></g></g></g><g fill="#191818" fill-opacity="1"><g transform="translate(73.367481, 301.460577)"><g><path d="M 28.28125 -11.28125 C 28.28125 -9.257812 27.769531 -7.347656 26.75 -5.546875 C 25.738281 -3.742188 24.160156 -2.28125 22.015625 -1.15625 C 19.878906 -0.0390625 17.117188 0.515625 13.734375 0.515625 C 12.046875 0.515625 10.5625 0.4375 9.28125 0.28125 C 8 0.125 6.804688 -0.125 5.703125 -0.46875 C 4.609375 -0.8125 3.46875 -1.265625 2.28125 -1.828125 L 2.28125 -10.765625 C 4.300781 -9.753906 6.332031 -8.976562 8.375 -8.4375 C 10.425781 -7.90625 12.28125 -7.640625 13.9375 -7.640625 C 14.9375 -7.640625 15.753906 -7.757812 16.390625 -8 C 17.023438 -8.238281 17.492188 -8.5625 17.796875 -8.96875 C 18.097656 -9.382812 18.25 -9.863281 18.25 -10.40625 C 18.25 -11.050781 18.023438 -11.597656 17.578125 -12.046875 C 17.128906 -12.492188 16.414062 -12.960938 15.4375 -13.453125 C 14.457031 -13.941406 13.160156 -14.550781 11.546875 -15.28125 C 10.179688 -15.925781 8.941406 -16.585938 7.828125 -17.265625 C 6.722656 -17.941406 5.773438 -18.710938 4.984375 -19.578125 C 4.203125 -20.453125 3.597656 -21.472656 3.171875 -22.640625 C 2.753906 -23.816406 2.546875 -25.195312 2.546875 -26.78125 C 2.546875 -29.175781 3.128906 -31.179688 4.296875 -32.796875 C 5.472656 -34.410156 7.113281 -35.625 9.21875 -36.4375 C 11.332031 -37.25 13.769531 -37.65625 16.53125 -37.65625 C 18.945312 -37.65625 21.125 -37.382812 23.0625 -36.84375 C 25 -36.300781 26.738281 -35.679688 28.28125 -34.984375 L 25.21875 -27.25 C 23.625 -27.976562 22.054688 -28.554688 20.515625 -28.984375 C 18.972656 -29.410156 17.539062 -29.625 16.21875 -29.625 C 15.363281 -29.625 14.660156 -29.519531 14.109375 -29.3125 C 13.554688 -29.101562 13.148438 -28.820312 12.890625 -28.46875 C 12.628906 -28.113281 12.5 -27.707031 12.5 -27.25 C 12.5 -26.664062 12.722656 -26.144531 13.171875 -25.6875 C 13.617188 -25.238281 14.367188 -24.742188 15.421875 -24.203125 C 16.484375 -23.671875 17.925781 -22.984375 19.75 -22.140625 C 21.5625 -21.328125 23.101562 -20.453125 24.375 -19.515625 C 25.644531 -18.578125 26.613281 -17.453125 27.28125 -16.140625 C 27.945312 -14.828125 28.28125 -13.207031 28.28125 -11.28125 Z M 28.28125 -11.28125 "/></g></g></g><g fill="#191818" fill-opacity="1"><g transform="translate(103.376943, 301.460577)"><g><path d="M 20.390625 0 L 10.359375 0 L 10.359375 -28.921875 L 1.296875 -28.921875 L 1.296875 -37.125 L 29.421875 -37.125 L 29.421875 -28.921875 L 20.390625 -28.921875 Z M 20.390625 0 "/></g></g></g><g fill="#191818" fill-opacity="1"><g transform="translate(134.097289, 301.460577)"><g><path d="M 16.171875 -37.125 C 19.546875 -37.125 22.347656 -36.710938 24.578125 -35.890625 C 26.816406 -35.066406 28.5 -33.84375 29.625 -32.21875 C 30.75 -30.59375 31.3125 -28.570312 31.3125 -26.15625 C 31.3125 -24.644531 31.054688 -23.269531 30.546875 -22.03125 C 30.035156 -20.800781 29.3125 -19.695312 28.375 -18.71875 C 27.4375 -17.75 26.316406 -16.898438 25.015625 -16.171875 L 35.828125 0 L 24.453125 0 L 16.578125 -13.515625 L 14.046875 -13.515625 L 14.046875 0 L 4.015625 0 L 4.015625 -37.125 Z M 16.015625 -29.53125 L 14.046875 -29.53125 L 14.046875 -21.046875 L 15.921875 -21.046875 C 17.460938 -21.046875 18.722656 -21.382812 19.703125 -22.0625 C 20.679688 -22.738281 21.171875 -23.953125 21.171875 -25.703125 C 21.171875 -26.898438 20.765625 -27.835938 19.953125 -28.515625 C 19.140625 -29.191406 17.828125 -29.53125 16.015625 -29.53125 Z M 16.015625 -29.53125 "/></g></g></g><g fill="#191818" fill-opacity="1"><g transform="translate(169.286049, 301.460577)"><g><path d="M 26.78125 0 L 24.953125 -6.953125 L 12.90625 -6.953125 L 11.015625 0 L 0 0 L 12.109375 -37.28125 L 25.5 -37.28125 L 37.75 0 Z M 22.875 -15.1875 L 21.28125 -21.28125 C 21.113281 -21.9375 20.867188 -22.878906 20.546875 -24.109375 C 20.222656 -25.335938 19.90625 -26.609375 19.59375 -27.921875 C 19.28125 -29.234375 19.035156 -30.3125 18.859375 -31.15625 C 18.710938 -30.3125 18.5 -29.265625 18.21875 -28.015625 C 17.9375 -26.773438 17.644531 -25.546875 17.34375 -24.328125 C 17.050781 -23.109375 16.796875 -22.09375 16.578125 -21.28125 L 14.984375 -15.1875 Z M 22.875 -15.1875 "/></g></g></g><g fill="#191818" fill-opacity="1"><g transform="translate(207.039087, 301.460577)"><g><path d="M 20.546875 -29.421875 C 19.359375 -29.421875 18.296875 -29.171875 17.359375 -28.671875 C 16.429688 -28.179688 15.632812 -27.460938 14.96875 -26.515625 C 14.3125 -25.566406 13.8125 -24.410156 13.46875 -23.046875 C 13.125 -21.679688 12.953125 -20.132812 12.953125 -18.40625 C 12.953125 -16.070312 13.25 -14.109375 13.84375 -12.515625 C 14.4375 -10.921875 15.335938 -9.71875 16.546875 -8.90625 C 17.753906 -8.09375 19.269531 -7.6875 21.09375 -7.6875 C 22.757812 -7.6875 24.359375 -7.914062 25.890625 -8.375 C 27.421875 -8.832031 28.960938 -9.382812 30.515625 -10.03125 L 30.515625 -1.546875 C 28.878906 -0.816406 27.203125 -0.289062 25.484375 0.03125 C 23.765625 0.351562 21.941406 0.515625 20.015625 0.515625 C 15.984375 0.515625 12.679688 -0.285156 10.109375 -1.890625 C 7.546875 -3.492188 5.660156 -5.71875 4.453125 -8.5625 C 3.242188 -11.40625 2.640625 -14.703125 2.640625 -18.453125 C 2.640625 -21.265625 3.03125 -23.835938 3.8125 -26.171875 C 4.601562 -28.515625 5.757812 -30.546875 7.28125 -32.265625 C 8.8125 -33.984375 10.695312 -35.3125 12.9375 -36.25 C 15.175781 -37.1875 17.742188 -37.65625 20.640625 -37.65625 C 22.429688 -37.65625 24.320312 -37.445312 26.3125 -37.03125 C 28.300781 -36.613281 30.242188 -35.953125 32.140625 -35.046875 L 29.078125 -27.140625 C 27.722656 -27.785156 26.347656 -28.328125 24.953125 -28.765625 C 23.566406 -29.203125 22.097656 -29.421875 20.546875 -29.421875 Z M 20.546875 -29.421875 "/></g></g></g><g fill="#191818" fill-opacity="1"><g transform="translate(240.780708, 301.460577)"><g><path d="M 20.390625 0 L 10.359375 0 L 10.359375 -28.921875 L 1.296875 -28.921875 L 1.296875 -37.125 L 29.421875 -37.125 L 29.421875 -28.921875 L 20.390625 -28.921875 Z M 20.390625 0 "/></g></g></g><g fill="#191818" fill-opacity="1"><g transform="translate(271.501043, 301.460577)"><g><path d="M 4.015625 0 L 4.015625 -37.125 L 14.09375 -37.125 L 14.09375 0 Z M 4.015625 0 "/></g></g></g><g fill="#191818" fill-opacity="1"><g transform="translate(289.603214, 301.460577)"><g><path d="M 38.75 -18.609375 C 38.75 -15.753906 38.40625 -13.148438 37.71875 -10.796875 C 37.03125 -8.453125 35.957031 -6.429688 34.5 -4.734375 C 33.050781 -3.046875 31.179688 -1.75 28.890625 -0.84375 C 26.609375 0.0625 23.875 0.515625 20.6875 0.515625 C 17.570312 0.515625 14.875 0.0625 12.59375 -0.84375 C 10.320312 -1.75 8.453125 -3.046875 6.984375 -4.734375 C 5.515625 -6.421875 4.421875 -8.441406 3.703125 -10.796875 C 2.992188 -13.148438 2.640625 -15.769531 2.640625 -18.65625 C 2.640625 -22.519531 3.273438 -25.878906 4.546875 -28.734375 C 5.828125 -31.585938 7.804688 -33.796875 10.484375 -35.359375 C 13.160156 -36.921875 16.582031 -37.703125 20.75 -37.703125 C 24.976562 -37.703125 28.414062 -36.914062 31.0625 -35.34375 C 33.71875 -33.769531 35.660156 -31.550781 36.890625 -28.6875 C 38.128906 -25.832031 38.75 -22.472656 38.75 -18.609375 Z M 13.203125 -18.609375 C 13.203125 -16.378906 13.457031 -14.457031 13.96875 -12.84375 C 14.476562 -11.238281 15.28125 -10.003906 16.375 -9.140625 C 17.476562 -8.273438 18.914062 -7.84375 20.6875 -7.84375 C 22.539062 -7.84375 24.007812 -8.273438 25.09375 -9.140625 C 26.1875 -10.003906 26.972656 -11.238281 27.453125 -12.84375 C 27.941406 -14.457031 28.1875 -16.378906 28.1875 -18.609375 C 28.1875 -21.960938 27.625 -24.613281 26.5 -26.5625 C 25.382812 -28.507812 23.46875 -29.484375 20.75 -29.484375 C 18.9375 -29.484375 17.472656 -29.039062 16.359375 -28.15625 C 15.253906 -27.28125 14.453125 -26.03125 13.953125 -24.40625 C 13.453125 -22.78125 13.203125 -20.847656 13.203125 -18.609375 Z M 13.203125 -18.609375 "/></g></g></g><g fill="#191818" fill-opacity="1"><g transform="translate(331.037599, 301.460577)"><g><path d="M 39.359375 0 L 26.203125 0 L 12.640625 -26.15625 L 12.421875 -26.15625 C 12.503906 -25.351562 12.578125 -24.394531 12.640625 -23.28125 C 12.710938 -22.164062 12.773438 -21.023438 12.828125 -19.859375 C 12.878906 -18.703125 12.90625 -17.660156 12.90625 -16.734375 L 12.90625 0 L 4.015625 0 L 4.015625 -37.125 L 17.109375 -37.125 L 30.625 -11.328125 L 30.78125 -11.328125 C 30.726562 -12.140625 30.675781 -13.082031 30.625 -14.15625 C 30.570312 -15.226562 30.523438 -16.3125 30.484375 -17.40625 C 30.441406 -18.507812 30.421875 -19.488281 30.421875 -20.34375 L 30.421875 -37.125 L 39.359375 -37.125 Z M 39.359375 0 "/></g></g></g></svg>