<svg width="24" height="24" viewBox="0 0 24 24" fill="none" xmlns="http://www.w3.org/2000/svg">
<rect width="24" height="24" rx="6" fill="#0C68E9"/>
<path fill-rule="evenodd" clip-rule="evenodd" d="M9.99992 6.66666C9.99992 6.29847 10.2984 6 10.6666 6H14.6667H17.3332H17.3333C17.7015 6 18 6.29848 18 6.66666V13.3333C18 13.7015 17.7015 14 17.3333 14H14.6667C14.2985 14 14.0001 13.7015 14.0001 13.3333V10H10.6666C10.2984 10 9.99992 9.70152 9.99992 9.33334V6.66666ZM14 17.3333C14 17.7015 13.7015 18 13.3333 18H9.33328L6.66676 18H6.66666C6.29847 18 6 17.7015 6 17.3333V10.6667C6 10.2985 6.29847 10 6.66666 10L9.33328 10C9.70147 10 9.99994 10.2985 9.99994 10.6667L9.99995 14L13.3333 14C13.7015 14 14 14.2985 14 14.6667L14 17.3333Z" fill="#FCFCFC"/>
</svg>
