<svg xmlns="http://www.w3.org/2000/svg" xmlns:xlink="http://www.w3.org/1999/xlink" width="500" zoomAndPan="magnify" viewBox="0 0 375 374.999991" height="500" preserveAspectRatio="xMidYMid meet" version="1.0"><defs><g/><clipPath id="41a5f06ceb"><path d="M 75.695312 55.753906 L 188 55.753906 L 188 254.503906 L 75.695312 254.503906 Z M 75.695312 55.753906 " clip-rule="nonzero"/></clipPath><clipPath id="b3be8ef05e"><path d="M 164 55.753906 L 299.195312 55.753906 L 299.195312 254.503906 L 164 254.503906 Z M 164 55.753906 " clip-rule="nonzero"/></clipPath><clipPath id="f55e7c96d4"><path d="M 212 221 L 290 221 L 290 254.503906 L 212 254.503906 Z M 212 221 " clip-rule="nonzero"/></clipPath></defs><g clip-path="url(#41a5f06ceb)"><path fill="#286021" d="M 187.496094 107.621094 L 123.550781 254.308594 L 75.695312 254.308594 L 164.921875 55.839844 Z M 187.496094 107.621094 " fill-opacity="1" fill-rule="nonzero"/></g><g clip-path="url(#b3be8ef05e)"><path fill="#27ae60" d="M 299.300781 254.308594 L 234.851562 216.257812 L 187.496094 107.621094 L 164.921875 55.839844 L 210.070312 55.839844 Z M 299.300781 254.308594 " fill-opacity="1" fill-rule="nonzero"/></g><g clip-path="url(#f55e7c96d4)"><path fill="#286021" d="M 235 221.609375 L 212.542969 254.394531 L 289.417969 254.394531 Z M 235 221.609375 " fill-opacity="1" fill-rule="nonzero"/></g><path fill="#286021" d="M 206.167969 169.480469 C 206.167969 170.398438 206.101562 171.308594 205.964844 172.214844 C 205.832031 173.117188 205.632812 174.011719 205.367188 174.886719 C 205.101562 175.761719 204.773438 176.617188 204.382812 177.445312 C 203.992188 178.273438 203.542969 179.066406 203.035156 179.828125 C 202.527344 180.589844 201.96875 181.3125 201.355469 181.992188 C 200.742188 182.671875 200.082031 183.300781 199.375 183.886719 C 198.667969 184.46875 197.921875 184.996094 197.136719 185.46875 C 196.351562 185.941406 195.539062 186.355469 194.695312 186.707031 C 193.847656 187.058594 192.984375 187.347656 192.09375 187.574219 C 191.207031 187.800781 190.308594 187.960938 189.398438 188.054688 C 188.488281 188.144531 187.574219 188.171875 186.660156 188.132812 C 185.742188 188.089844 184.835938 187.980469 183.9375 187.808594 C 183.039062 187.632812 182.15625 187.394531 181.292969 187.089844 C 180.429688 186.785156 179.59375 186.421875 178.785156 185.992188 C 177.972656 185.566406 177.199219 185.082031 176.460938 184.539062 C 175.722656 184 175.027344 183.40625 174.375 182.761719 C 175.367188 183.148438 176.386719 183.449219 177.433594 183.664062 C 178.476562 183.875 179.53125 184 180.597656 184.03125 C 181.664062 184.0625 182.722656 184.003906 183.777344 183.855469 C 184.835938 183.703125 185.871094 183.464844 186.882812 183.140625 C 187.898438 182.8125 188.878906 182.402344 189.824219 181.90625 C 190.765625 181.414062 191.664062 180.84375 192.507812 180.195312 C 193.355469 179.546875 194.140625 178.832031 194.863281 178.046875 C 195.589844 177.265625 196.242188 176.425781 196.820312 175.535156 C 197.402344 174.640625 197.902344 173.703125 198.320312 172.722656 C 198.742188 171.742188 199.074219 170.734375 199.324219 169.695312 C 199.570312 168.660156 199.726562 167.609375 199.792969 166.546875 C 199.863281 165.480469 199.835938 164.417969 199.722656 163.359375 C 199.609375 162.300781 199.40625 161.257812 199.113281 160.234375 C 198.820312 159.207031 198.441406 158.214844 197.976562 157.253906 C 197.515625 156.296875 196.972656 155.382812 196.351562 154.515625 C 195.734375 153.644531 195.042969 152.839844 194.285156 152.089844 C 195.15625 152.429688 195.996094 152.832031 196.804688 153.296875 C 197.617188 153.761719 198.386719 154.285156 199.117188 154.867188 C 199.847656 155.449219 200.53125 156.082031 201.167969 156.765625 C 201.804688 157.449219 202.386719 158.179688 202.914062 158.949219 C 203.441406 159.71875 203.90625 160.527344 204.3125 161.367188 C 204.71875 162.210938 205.058594 163.078125 205.335938 163.96875 C 205.613281 164.863281 205.820312 165.769531 205.957031 166.695312 C 206.097656 167.617188 206.167969 168.546875 206.167969 169.480469 Z M 206.167969 169.480469 " fill-opacity="1" fill-rule="nonzero"/><path fill="#27ae60" d="M 199.835938 165.367188 C 199.835938 166.121094 199.792969 166.875 199.699219 167.628906 C 199.609375 168.378906 199.472656 169.121094 199.289062 169.855469 C 199.109375 170.589844 198.882812 171.3125 198.613281 172.019531 C 198.34375 172.726562 198.03125 173.414062 197.679688 174.082031 C 197.324219 174.753906 196.933594 175.398438 196.5 176.019531 C 196.070312 176.640625 195.601562 177.234375 195.097656 177.796875 C 194.59375 178.363281 194.058594 178.894531 193.488281 179.394531 C 192.917969 179.894531 192.324219 180.359375 191.699219 180.785156 C 191.074219 181.210938 190.425781 181.597656 189.753906 181.945312 C 189.082031 182.292969 188.390625 182.601562 187.679688 182.863281 C 186.972656 183.128906 186.25 183.347656 185.511719 183.527344 C 184.777344 183.703125 184.035156 183.832031 183.28125 183.917969 C 182.53125 184.003906 181.777344 184.042969 181.019531 184.039062 C 180.261719 184.03125 179.507812 183.980469 178.757812 183.882812 C 178.007812 183.785156 177.265625 183.644531 176.53125 183.453125 C 175.800781 183.265625 175.082031 183.035156 174.375 182.761719 C 173.617188 182.011719 172.929688 181.203125 172.308594 180.335938 C 171.691406 179.46875 171.148438 178.554688 170.6875 177.59375 C 170.222656 176.632812 169.847656 175.640625 169.554688 174.617188 C 169.261719 173.589844 169.058594 172.550781 168.941406 171.488281 C 168.828125 170.429688 168.804688 169.367188 168.871094 168.304688 C 168.9375 167.242188 169.097656 166.191406 169.34375 165.152344 C 169.589844 164.117188 169.925781 163.109375 170.34375 162.128906 C 170.765625 161.148438 171.265625 160.214844 171.84375 159.320312 C 172.425781 158.425781 173.078125 157.585938 173.800781 156.804688 C 174.523438 156.023438 175.308594 155.308594 176.15625 154.660156 C 177.003906 154.011719 177.898438 153.441406 178.84375 152.945312 C 179.785156 152.453125 180.765625 152.039062 181.78125 151.714844 C 182.792969 151.386719 183.828125 151.148438 184.882812 151 C 185.941406 150.847656 187 150.789062 188.066406 150.824219 C 189.128906 150.855469 190.183594 150.976562 191.230469 151.1875 C 192.273438 151.402344 193.292969 151.703125 194.285156 152.089844 C 195.167969 152.957031 195.953125 153.898438 196.644531 154.921875 C 197.335938 155.945312 197.921875 157.027344 198.398438 158.167969 C 198.875 159.308594 199.234375 160.484375 199.476562 161.695312 C 199.71875 162.90625 199.839844 164.128906 199.835938 165.367188 Z M 199.835938 165.367188 " fill-opacity="1" fill-rule="nonzero"/><g fill="#ffffff" fill-opacity="1"><g transform="translate(76.843439, 294.130704)"><g><path d="M 10.53125 0 L 9.5 -3.40625 L 4.296875 -3.40625 L 3.265625 0 L 0 0 L 5.046875 -14.34375 L 8.734375 -14.34375 L 13.796875 0 Z M 8.78125 -5.9375 C 7.820312 -9.019531 7.28125 -10.757812 7.15625 -11.15625 C 7.039062 -11.5625 6.957031 -11.882812 6.90625 -12.125 C 6.6875 -11.289062 6.070312 -9.226562 5.0625 -5.9375 Z M 8.78125 -5.9375 "/></g></g></g><g fill="#ffffff" fill-opacity="1"><g transform="translate(98.776886, 294.130704)"><g><path d="M 1.796875 -14.28125 L 6.234375 -14.28125 C 8.265625 -14.28125 9.734375 -13.988281 10.640625 -13.40625 C 11.554688 -12.832031 12.015625 -11.921875 12.015625 -10.671875 C 12.015625 -9.816406 11.816406 -9.113281 11.421875 -8.5625 C 11.023438 -8.019531 10.492188 -7.691406 9.828125 -7.578125 L 9.828125 -7.484375 C 10.734375 -7.273438 11.382812 -6.894531 11.78125 -6.34375 C 12.1875 -5.789062 12.390625 -5.054688 12.390625 -4.140625 C 12.390625 -2.835938 11.914062 -1.820312 10.96875 -1.09375 C 10.03125 -0.363281 8.753906 0 7.140625 0 L 1.796875 0 Z M 4.828125 -8.625 L 6.578125 -8.625 C 7.398438 -8.625 7.992188 -8.75 8.359375 -9 C 8.734375 -9.257812 8.921875 -9.679688 8.921875 -10.265625 C 8.921875 -10.804688 8.71875 -11.195312 8.3125 -11.4375 C 7.914062 -11.675781 7.285156 -11.796875 6.421875 -11.796875 L 4.828125 -11.796875 Z M 4.828125 -6.21875 L 4.828125 -2.5 L 6.796875 -2.5 C 7.628906 -2.5 8.242188 -2.65625 8.640625 -2.96875 C 9.035156 -3.289062 9.234375 -3.78125 9.234375 -4.4375 C 9.234375 -5.625 8.390625 -6.21875 6.703125 -6.21875 Z M 4.828125 -6.21875 "/></g></g></g><g fill="#ffffff" fill-opacity="1"><g transform="translate(120.349147, 294.130704)"><g><path d="M 10.21875 -3.96875 C 10.21875 -2.675781 9.753906 -1.65625 8.828125 -0.90625 C 7.898438 -0.164062 6.613281 0.203125 4.96875 0.203125 C 3.4375 0.203125 2.085938 -0.0859375 0.921875 -0.671875 L 0.921875 -3.484375 C 1.878906 -3.046875 2.691406 -2.738281 3.359375 -2.5625 C 4.023438 -2.394531 4.640625 -2.3125 5.203125 -2.3125 C 5.859375 -2.3125 6.363281 -2.4375 6.71875 -2.6875 C 7.070312 -2.9375 7.25 -3.3125 7.25 -3.8125 C 7.25 -4.09375 7.171875 -4.34375 7.015625 -4.5625 C 6.859375 -4.78125 6.628906 -4.988281 6.328125 -5.1875 C 6.023438 -5.394531 5.410156 -5.71875 4.484375 -6.15625 C 3.609375 -6.570312 2.953125 -6.96875 2.515625 -7.34375 C 2.078125 -7.71875 1.726562 -8.15625 1.46875 -8.65625 C 1.207031 -9.164062 1.078125 -9.753906 1.078125 -10.421875 C 1.078125 -11.679688 1.503906 -12.671875 2.359375 -13.390625 C 3.222656 -14.117188 4.410156 -14.484375 5.921875 -14.484375 C 6.660156 -14.484375 7.363281 -14.394531 8.03125 -14.21875 C 8.707031 -14.039062 9.414062 -13.796875 10.15625 -13.484375 L 9.1875 -11.125 C 8.414062 -11.4375 7.78125 -11.65625 7.28125 -11.78125 C 6.789062 -11.90625 6.304688 -11.96875 5.828125 -11.96875 C 5.253906 -11.96875 4.8125 -11.832031 4.5 -11.5625 C 4.195312 -11.289062 4.046875 -10.941406 4.046875 -10.515625 C 4.046875 -10.253906 4.109375 -10.019531 4.234375 -9.8125 C 4.359375 -9.613281 4.550781 -9.421875 4.8125 -9.234375 C 5.082031 -9.054688 5.722656 -8.726562 6.734375 -8.25 C 8.066406 -7.601562 8.976562 -6.957031 9.46875 -6.3125 C 9.96875 -5.675781 10.21875 -4.894531 10.21875 -3.96875 Z M 10.21875 -3.96875 "/></g></g></g><g fill="#ffffff" fill-opacity="1"><g transform="translate(139.500478, 294.130704)"><g><path d="M 7.3125 0 L 4.28125 0 L 4.28125 -11.765625 L 0.40625 -11.765625 L 0.40625 -14.28125 L 11.1875 -14.28125 L 11.1875 -11.765625 L 7.3125 -11.765625 Z M 7.3125 0 "/></g></g></g><g fill="#ffffff" fill-opacity="1"><g transform="translate(159.217995, 294.130704)"><g><path d="M 4.828125 -7.9375 L 5.796875 -7.9375 C 6.753906 -7.9375 7.460938 -8.09375 7.921875 -8.40625 C 8.378906 -8.726562 8.609375 -9.234375 8.609375 -9.921875 C 8.609375 -10.597656 8.375 -11.078125 7.90625 -11.359375 C 7.4375 -11.648438 6.71875 -11.796875 5.75 -11.796875 L 4.828125 -11.796875 Z M 4.828125 -5.484375 L 4.828125 0 L 1.796875 0 L 1.796875 -14.28125 L 5.953125 -14.28125 C 7.898438 -14.28125 9.335938 -13.925781 10.265625 -13.21875 C 11.191406 -12.507812 11.65625 -11.4375 11.65625 -10 C 11.65625 -9.15625 11.425781 -8.40625 10.96875 -7.75 C 10.507812 -7.101562 9.851562 -6.59375 9 -6.21875 C 11.15625 -3.007812 12.554688 -0.9375 13.203125 0 L 9.84375 0 L 6.4375 -5.484375 Z M 4.828125 -5.484375 "/></g></g></g><g fill="#ffffff" fill-opacity="1"><g transform="translate(180.555972, 294.130704)"><g><path d="M 10.53125 0 L 9.5 -3.40625 L 4.296875 -3.40625 L 3.265625 0 L 0 0 L 5.046875 -14.34375 L 8.734375 -14.34375 L 13.796875 0 Z M 8.78125 -5.9375 C 7.820312 -9.019531 7.28125 -10.757812 7.15625 -11.15625 C 7.039062 -11.5625 6.957031 -11.882812 6.90625 -12.125 C 6.6875 -11.289062 6.070312 -9.226562 5.0625 -5.9375 Z M 8.78125 -5.9375 "/></g></g></g><g fill="#ffffff" fill-opacity="1"><g transform="translate(202.489419, 294.130704)"><g><path d="M 7.859375 -11.96875 C 6.722656 -11.96875 5.84375 -11.535156 5.21875 -10.671875 C 4.59375 -9.816406 4.28125 -8.625 4.28125 -7.09375 C 4.28125 -3.914062 5.472656 -2.328125 7.859375 -2.328125 C 8.859375 -2.328125 10.070312 -2.578125 11.5 -3.078125 L 11.5 -0.53125 C 10.332031 -0.0390625 9.023438 0.203125 7.578125 0.203125 C 5.503906 0.203125 3.914062 -0.425781 2.8125 -1.6875 C 1.707031 -2.945312 1.15625 -4.757812 1.15625 -7.125 C 1.15625 -8.601562 1.425781 -9.898438 1.96875 -11.015625 C 2.507812 -12.140625 3.285156 -13 4.296875 -13.59375 C 5.316406 -14.1875 6.503906 -14.484375 7.859375 -14.484375 C 9.242188 -14.484375 10.640625 -14.148438 12.046875 -13.484375 L 11.0625 -11.015625 C 10.53125 -11.265625 9.992188 -11.484375 9.453125 -11.671875 C 8.910156 -11.867188 8.378906 -11.96875 7.859375 -11.96875 Z M 7.859375 -11.96875 "/></g></g></g><g fill="#ffffff" fill-opacity="1"><g transform="translate(223.368591, 294.130704)"><g><path d="M 7.3125 0 L 4.28125 0 L 4.28125 -11.765625 L 0.40625 -11.765625 L 0.40625 -14.28125 L 11.1875 -14.28125 L 11.1875 -11.765625 L 7.3125 -11.765625 Z M 7.3125 0 "/></g></g></g><g fill="#ffffff" fill-opacity="1"><g transform="translate(243.086108, 294.130704)"><g><path d="M 1.796875 0 L 1.796875 -14.28125 L 4.828125 -14.28125 L 4.828125 0 Z M 1.796875 0 "/></g></g></g><g fill="#ffffff" fill-opacity="1"><g transform="translate(257.844625, 294.130704)"><g><path d="M 14.75 -7.15625 C 14.75 -4.789062 14.160156 -2.972656 12.984375 -1.703125 C 11.816406 -0.429688 10.140625 0.203125 7.953125 0.203125 C 5.765625 0.203125 4.082031 -0.429688 2.90625 -1.703125 C 1.738281 -2.972656 1.15625 -4.796875 1.15625 -7.171875 C 1.15625 -9.554688 1.742188 -11.375 2.921875 -12.625 C 4.097656 -13.875 5.785156 -14.5 7.984375 -14.5 C 10.171875 -14.5 11.84375 -13.867188 13 -12.609375 C 14.164062 -11.347656 14.75 -9.53125 14.75 -7.15625 Z M 4.34375 -7.15625 C 4.34375 -5.5625 4.644531 -4.359375 5.25 -3.546875 C 5.851562 -2.742188 6.753906 -2.34375 7.953125 -2.34375 C 10.367188 -2.34375 11.578125 -3.945312 11.578125 -7.15625 C 11.578125 -10.375 10.378906 -11.984375 7.984375 -11.984375 C 6.773438 -11.984375 5.863281 -11.578125 5.25 -10.765625 C 4.644531 -9.953125 4.34375 -8.75 4.34375 -7.15625 Z M 4.34375 -7.15625 "/></g></g></g><g fill="#ffffff" fill-opacity="1"><g transform="translate(281.896373, 294.130704)"><g><path d="M 14.46875 0 L 10.609375 0 L 4.40625 -10.796875 L 4.3125 -10.796875 C 4.4375 -8.890625 4.5 -7.53125 4.5 -6.71875 L 4.5 0 L 1.796875 0 L 1.796875 -14.28125 L 5.609375 -14.28125 L 11.8125 -3.578125 L 11.890625 -3.578125 C 11.785156 -5.441406 11.734375 -6.753906 11.734375 -7.515625 L 11.734375 -14.28125 L 14.46875 -14.28125 Z M 14.46875 0 "/></g></g></g></svg>