<svg width="24" height="24" viewBox="0 0 24 24" fill="none" xmlns="http://www.w3.org/2000/svg">
<rect width="24" height="24" rx="12" fill="#1A1D1F"/>
<path fill-rule="evenodd" clip-rule="evenodd" d="M10.6666 8.44444C10.6666 8.19898 10.8656 8 11.1111 8H13.7778H15.5554H15.5556C15.801 8 16 8.19898 16 8.44444V12.8889C16 13.1343 15.801 13.3333 15.5556 13.3333H13.7778C13.5324 13.3333 13.3334 13.1343 13.3334 12.8889L13.3334 10.6667H11.1111C10.8656 10.6667 10.6666 10.4677 10.6666 10.2222V8.44444ZM13.3333 15.5556C13.3333 15.801 13.1343 16 12.8889 16L10.2222 16H8.44451H8.44444C8.19898 16 8 15.801 8 15.5556V11.1111C8 10.8657 8.19898 10.6667 8.44444 10.6667L10.2222 10.6667C10.4676 10.6667 10.6666 10.8656 10.6666 11.1111L10.6666 13.3333H12.8889C13.1343 13.3333 13.3333 13.5323 13.3333 13.7778V15.5556Z" fill="#FCFCFC"/>
</svg>
