<svg width="20" height="20" viewBox="0 0 20 20" fill="none" xmlns="http://www.w3.org/2000/svg">
<path d="M7.50065 4.16732C7.23204 4.16732 6.9664 4.18003 6.7043 4.20488C7.85156 2.19151 10.0176 0.833984 12.5007 0.833984C16.1825 0.833984 19.1673 3.81875 19.1673 7.50065C19.1673 9.98373 17.8098 12.1497 15.7964 13.297C15.8213 13.0349 15.834 12.7693 15.834 12.5007C15.834 7.89828 12.103 4.16732 7.50065 4.16732Z" fill="#32AE60"/>
<path fill-rule="evenodd" clip-rule="evenodd" d="M0.833984 12.5007C0.833984 9.33373 3.0422 6.68256 6.00289 6.0029C6.48434 5.89238 6.98567 5.83398 7.50065 5.83398C11.1825 5.83398 14.1673 8.81875 14.1673 12.5007C14.1673 13.0156 14.1089 13.517 13.9984 13.9984C13.3187 16.9591 10.6676 19.1673 7.50065 19.1673C3.81875 19.1673 0.833984 16.1825 0.833984 12.5007ZM7.89386 9.26592C8.16483 9.41094 8.33398 9.69332 8.33398 10.0007V13.7506H8.75065C9.21089 13.7506 9.58398 14.1237 9.58398 14.584C9.58398 15.0442 9.21089 15.4173 8.75065 15.4173H6.25065C5.79041 15.4173 5.41732 15.0442 5.41732 14.584C5.41732 14.1237 5.79041 13.7506 6.25065 13.7506H6.66732V11.5557C6.28984 11.7741 5.80257 11.6642 5.55727 11.2962C5.30198 10.9133 5.40546 10.3959 5.7884 10.1406L7.0384 9.30728C7.29411 9.1368 7.6229 9.12091 7.89386 9.26592Z" fill="#32AE60"/>
</svg>
